<?xml version="1.0" encoding="UTF-8" standalone="no"?>
<!DOCTYPE svg PUBLIC "-//W3C//DTD SVG 1.1//EN"
 "http://www.w3.org/Graphics/SVG/1.1/DTD/svg11.dtd">
<!-- Generated by graphviz version 2.43.0 (0)
 -->
<!-- Title: %3 Pages: 1 -->
<svg width="3597pt" height="692pt"
 viewBox="0.00 0.00 3596.65 692.00" xmlns="http://www.w3.org/2000/svg" xmlns:xlink="http://www.w3.org/1999/xlink">
<g id="graph0" class="graph" transform="scale(1 1) rotate(0) translate(4 688)">
<title>%3</title>
<polygon fill="white" stroke="transparent" points="-4,4 -4,-688 3592.65,-688 3592.65,4 -4,4"/>
<!-- [root] module.app.aws_dynamodb_table.apps_storage (expand) -->
<g id="node1" class="node">
<title>[root] module.app.aws_dynamodb_table.apps_storage (expand)</title>
<polygon fill="none" stroke="black" points="2282.78,-180 1927.78,-180 1927.78,-144 2282.78,-144 2282.78,-180"/>
<text text-anchor="middle" x="2105.28" y="-158.3" font-family="Times,serif" font-size="14.00">module.app.aws_dynamodb_table.apps_storage</text>
</g>
<!-- [root] provider[&quot;registry.terraform.io/hashicorp/aws&quot;] -->
<g id="node12" class="node">
<title>[root] provider[&quot;registry.terraform.io/hashicorp/aws&quot;]</title>
<polygon fill="none" stroke="black" points="1573.28,-108 1248.02,-90 1573.28,-72 1898.55,-90 1573.28,-108"/>
<text text-anchor="middle" x="1573.28" y="-86.3" font-family="Times,serif" font-size="14.00">provider[&quot;registry.terraform.io/hashicorp/aws&quot;]</text>
</g>
<!-- [root] module.app.aws_dynamodb_table.apps_storage (expand)&#45;&gt;[root] provider[&quot;registry.terraform.io/hashicorp/aws&quot;] -->
<g id="edge6" class="edge">
<title>[root] module.app.aws_dynamodb_table.apps_storage (expand)&#45;&gt;[root] provider[&quot;registry.terraform.io/hashicorp/aws&quot;]</title>
<path fill="none" stroke="black" d="M1975.82,-143.97C1883.07,-131.76 1759.94,-115.56 1674.39,-104.3"/>
<polygon fill="black" stroke="black" points="1674.78,-100.82 1664.41,-102.99 1673.86,-107.76 1674.78,-100.82"/>
</g>
<!-- [root] module.app.var.dynamodb_name (expand) -->
<g id="node18" class="node">
<title>[root] module.app.var.dynamodb_name (expand)</title>
<ellipse fill="none" stroke="black" cx="2601.28" cy="-90" rx="235.06" ry="18"/>
<text text-anchor="middle" x="2601.28" y="-86.3" font-family="Times,serif" font-size="14.00">[root] module.app.var.dynamodb_name (expand)</text>
</g>
<!-- [root] module.app.aws_dynamodb_table.apps_storage (expand)&#45;&gt;[root] module.app.var.dynamodb_name (expand) -->
<g id="edge3" class="edge">
<title>[root] module.app.aws_dynamodb_table.apps_storage (expand)&#45;&gt;[root] module.app.var.dynamodb_name (expand)</title>
<path fill="none" stroke="black" d="M2225.99,-143.97C2304.47,-132.89 2406.3,-118.52 2484.08,-107.54"/>
<polygon fill="black" stroke="black" points="2484.99,-110.95 2494.41,-106.08 2484.02,-104.02 2484.99,-110.95"/>
</g>
<!-- [root] module.app.var.environment (expand) -->
<g id="node19" class="node">
<title>[root] module.app.var.environment (expand)</title>
<ellipse fill="none" stroke="black" cx="2132.28" cy="-90" rx="215.56" ry="18"/>
<text text-anchor="middle" x="2132.28" y="-86.3" font-family="Times,serif" font-size="14.00">[root] module.app.var.environment (expand)</text>
</g>
<!-- [root] module.app.aws_dynamodb_table.apps_storage (expand)&#45;&gt;[root] module.app.var.environment (expand) -->
<g id="edge4" class="edge">
<title>[root] module.app.aws_dynamodb_table.apps_storage (expand)&#45;&gt;[root] module.app.var.environment (expand)</title>
<path fill="none" stroke="black" d="M2111.96,-143.7C2115,-135.81 2118.67,-126.3 2122.05,-117.55"/>
<polygon fill="black" stroke="black" points="2125.35,-118.69 2125.69,-108.1 2118.82,-116.17 2125.35,-118.69"/>
</g>
<!-- [root] module.app.var.project (expand) -->
<g id="node20" class="node">
<title>[root] module.app.var.project (expand)</title>
<ellipse fill="none" stroke="black" cx="1040.28" cy="-90" rx="189.57" ry="18"/>
<text text-anchor="middle" x="1040.28" y="-86.3" font-family="Times,serif" font-size="14.00">[root] module.app.var.project (expand)</text>
</g>
<!-- [root] module.app.aws_dynamodb_table.apps_storage (expand)&#45;&gt;[root] module.app.var.project (expand) -->
<g id="edge5" class="edge">
<title>[root] module.app.aws_dynamodb_table.apps_storage (expand)&#45;&gt;[root] module.app.var.project (expand)</title>
<path fill="none" stroke="black" d="M1927.73,-151.39C1752.62,-141.61 1477.39,-125.45 1239.28,-108 1221.26,-106.68 1202.32,-105.19 1183.59,-103.66"/>
<polygon fill="black" stroke="black" points="1183.77,-100.16 1173.52,-102.83 1183.2,-107.14 1183.77,-100.16"/>
</g>
<!-- [root] module.app.aws_iam_role.iam_for_lambda (expand) -->
<g id="node2" class="node">
<title>[root] module.app.aws_iam_role.iam_for_lambda (expand)</title>
<polygon fill="none" stroke="black" points="2263.78,-324 1946.78,-324 1946.78,-288 2263.78,-288 2263.78,-324"/>
<text text-anchor="middle" x="2105.28" y="-302.3" font-family="Times,serif" font-size="14.00">module.app.aws_iam_role.iam_for_lambda</text>
</g>
<!-- [root] module.app.data.aws_iam_policy_document.inline_policy (expand) -->
<g id="node9" class="node">
<title>[root] module.app.data.aws_iam_policy_document.inline_policy (expand)</title>
<polygon fill="none" stroke="black" points="2315.28,-252 1895.28,-252 1895.28,-216 2315.28,-216 2315.28,-252"/>
<text text-anchor="middle" x="2105.28" y="-230.3" font-family="Times,serif" font-size="14.00">module.app.data.aws_iam_policy_document.inline_policy</text>
</g>
<!-- [root] module.app.aws_iam_role.iam_for_lambda (expand)&#45;&gt;[root] module.app.data.aws_iam_policy_document.inline_policy (expand) -->
<g id="edge7" class="edge">
<title>[root] module.app.aws_iam_role.iam_for_lambda (expand)&#45;&gt;[root] module.app.data.aws_iam_policy_document.inline_policy (expand)</title>
<path fill="none" stroke="black" d="M2105.28,-287.7C2105.28,-279.98 2105.28,-270.71 2105.28,-262.11"/>
<polygon fill="black" stroke="black" points="2108.78,-262.1 2105.28,-252.1 2101.78,-262.1 2108.78,-262.1"/>
</g>
<!-- [root] module.app.aws_lambda_function.catalog&#45;writer (expand) -->
<g id="node3" class="node">
<title>[root] module.app.aws_lambda_function.catalog&#45;writer (expand)</title>
<polygon fill="none" stroke="black" points="2286.28,-396 1924.28,-396 1924.28,-360 2286.28,-360 2286.28,-396"/>
<text text-anchor="middle" x="2105.28" y="-374.3" font-family="Times,serif" font-size="14.00">module.app.aws_lambda_function.catalog&#45;writer</text>
</g>
<!-- [root] module.app.aws_lambda_function.catalog&#45;writer (expand)&#45;&gt;[root] module.app.aws_iam_role.iam_for_lambda (expand) -->
<g id="edge8" class="edge">
<title>[root] module.app.aws_lambda_function.catalog&#45;writer (expand)&#45;&gt;[root] module.app.aws_iam_role.iam_for_lambda (expand)</title>
<path fill="none" stroke="black" d="M2105.28,-359.7C2105.28,-351.98 2105.28,-342.71 2105.28,-334.11"/>
<polygon fill="black" stroke="black" points="2108.78,-334.1 2105.28,-324.1 2101.78,-334.1 2108.78,-334.1"/>
</g>
<!-- [root] module.app.data.archive_file.lambda (expand) -->
<g id="node8" class="node">
<title>[root] module.app.data.archive_file.lambda (expand)</title>
<polygon fill="none" stroke="black" points="2986.28,-324 2708.28,-324 2708.28,-288 2986.28,-288 2986.28,-324"/>
<text text-anchor="middle" x="2847.28" y="-302.3" font-family="Times,serif" font-size="14.00">module.app.data.archive_file.lambda</text>
</g>
<!-- [root] module.app.aws_lambda_function.catalog&#45;writer (expand)&#45;&gt;[root] module.app.data.archive_file.lambda (expand) -->
<g id="edge9" class="edge">
<title>[root] module.app.aws_lambda_function.catalog&#45;writer (expand)&#45;&gt;[root] module.app.data.archive_file.lambda (expand)</title>
<path fill="none" stroke="black" d="M2285.85,-359.97C2412.25,-348.04 2579.12,-332.3 2698.01,-321.08"/>
<polygon fill="black" stroke="black" points="2698.65,-324.54 2708.28,-320.11 2697.99,-317.57 2698.65,-324.54"/>
</g>
<!-- [root] module.app.aws_lambda_permission.allow_bucket (expand) -->
<g id="node4" class="node">
<title>[root] module.app.aws_lambda_permission.allow_bucket (expand)</title>
<polygon fill="none" stroke="black" points="2275.28,-468 1901.28,-468 1901.28,-432 2275.28,-432 2275.28,-468"/>
<text text-anchor="middle" x="2088.28" y="-446.3" font-family="Times,serif" font-size="14.00">module.app.aws_lambda_permission.allow_bucket</text>
</g>
<!-- [root] module.app.aws_lambda_permission.allow_bucket (expand)&#45;&gt;[root] module.app.aws_lambda_function.catalog&#45;writer (expand) -->
<g id="edge10" class="edge">
<title>[root] module.app.aws_lambda_permission.allow_bucket (expand)&#45;&gt;[root] module.app.aws_lambda_function.catalog&#45;writer (expand)</title>
<path fill="none" stroke="black" d="M2092.49,-431.7C2094.38,-423.9 2096.66,-414.51 2098.77,-405.83"/>
<polygon fill="black" stroke="black" points="2102.17,-406.65 2101.13,-396.1 2095.37,-405 2102.17,-406.65"/>
</g>
<!-- [root] module.app.aws_s3_bucket.example_bucket (expand) -->
<g id="node5" class="node">
<title>[root] module.app.aws_s3_bucket.example_bucket (expand)</title>
<polygon fill="none" stroke="black" points="1737.78,-180 1408.78,-180 1408.78,-144 1737.78,-144 1737.78,-180"/>
<text text-anchor="middle" x="1573.28" y="-158.3" font-family="Times,serif" font-size="14.00">module.app.aws_s3_bucket.example_bucket</text>
</g>
<!-- [root] module.app.aws_lambda_permission.allow_bucket (expand)&#45;&gt;[root] module.app.aws_s3_bucket.example_bucket (expand) -->
<g id="edge11" class="edge">
<title>[root] module.app.aws_lambda_permission.allow_bucket (expand)&#45;&gt;[root] module.app.aws_s3_bucket.example_bucket (expand)</title>
<path fill="none" stroke="black" d="M1997.64,-431.88C1969.7,-423.89 1939.85,-412.39 1915.28,-396 1828.89,-338.37 1853.51,-272.36 1766.28,-216 1743.35,-201.18 1716.3,-190.46 1689.83,-182.73"/>
<polygon fill="black" stroke="black" points="1690.69,-179.33 1680.11,-180.01 1688.8,-186.07 1690.69,-179.33"/>
</g>
<!-- [root] module.app.aws_s3_bucket.example_bucket (expand)&#45;&gt;[root] provider[&quot;registry.terraform.io/hashicorp/aws&quot;] -->
<g id="edge15" class="edge">
<title>[root] module.app.aws_s3_bucket.example_bucket (expand)&#45;&gt;[root] provider[&quot;registry.terraform.io/hashicorp/aws&quot;]</title>
<path fill="none" stroke="black" d="M1573.28,-143.7C1573.28,-135.98 1573.28,-126.71 1573.28,-118.11"/>
<polygon fill="black" stroke="black" points="1576.78,-118.1 1573.28,-108.1 1569.78,-118.1 1576.78,-118.1"/>
</g>
<!-- [root] module.app.aws_s3_bucket.example_bucket (expand)&#45;&gt;[root] module.app.var.environment (expand) -->
<g id="edge13" class="edge">
<title>[root] module.app.aws_s3_bucket.example_bucket (expand)&#45;&gt;[root] module.app.var.environment (expand)</title>
<path fill="none" stroke="black" d="M1709.32,-143.97C1800.34,-132.57 1919.21,-117.68 2007.75,-106.6"/>
<polygon fill="black" stroke="black" points="2008.36,-110.05 2017.85,-105.33 2007.49,-103.1 2008.36,-110.05"/>
</g>
<!-- [root] module.app.aws_s3_bucket.example_bucket (expand)&#45;&gt;[root] module.app.var.project (expand) -->
<g id="edge14" class="edge">
<title>[root] module.app.aws_s3_bucket.example_bucket (expand)&#45;&gt;[root] module.app.var.project (expand)</title>
<path fill="none" stroke="black" d="M1443.58,-143.97C1355.84,-132.44 1240.97,-117.36 1156.27,-106.23"/>
<polygon fill="black" stroke="black" points="1156.73,-102.76 1146.36,-104.93 1155.81,-109.7 1156.73,-102.76"/>
</g>
<!-- [root] module.app.var.bucket_name (expand) -->
<g id="node21" class="node">
<title>[root] module.app.var.bucket_name (expand)</title>
<ellipse fill="none" stroke="black" cx="614.28" cy="-90" rx="217.96" ry="18"/>
<text text-anchor="middle" x="614.28" y="-86.3" font-family="Times,serif" font-size="14.00">[root] module.app.var.bucket_name (expand)</text>
</g>
<!-- [root] module.app.aws_s3_bucket.example_bucket (expand)&#45;&gt;[root] module.app.var.bucket_name (expand) -->
<g id="edge12" class="edge">
<title>[root] module.app.aws_s3_bucket.example_bucket (expand)&#45;&gt;[root] module.app.var.bucket_name (expand)</title>
<path fill="none" stroke="black" d="M1408.66,-149.2C1260.29,-138.53 1036.18,-122.35 841.28,-108 821.3,-106.53 800.33,-104.97 779.54,-103.42"/>
<polygon fill="black" stroke="black" points="779.59,-99.92 769.36,-102.66 779.07,-106.9 779.59,-99.92"/>
</g>
<!-- [root] module.app.aws_s3_bucket_notification.bucket_notification (expand) -->
<g id="node6" class="node">
<title>[root] module.app.aws_s3_bucket_notification.bucket_notification (expand)</title>
<polygon fill="none" stroke="black" points="2306.78,-540 1869.78,-540 1869.78,-504 2306.78,-504 2306.78,-540"/>
<text text-anchor="middle" x="2088.28" y="-518.3" font-family="Times,serif" font-size="14.00">module.app.aws_s3_bucket_notification.bucket_notification</text>
</g>
<!-- [root] module.app.aws_s3_bucket_notification.bucket_notification (expand)&#45;&gt;[root] module.app.aws_lambda_permission.allow_bucket (expand) -->
<g id="edge16" class="edge">
<title>[root] module.app.aws_s3_bucket_notification.bucket_notification (expand)&#45;&gt;[root] module.app.aws_lambda_permission.allow_bucket (expand)</title>
<path fill="none" stroke="black" d="M2088.28,-503.7C2088.28,-495.98 2088.28,-486.71 2088.28,-478.11"/>
<polygon fill="black" stroke="black" points="2091.78,-478.1 2088.28,-468.1 2084.78,-478.1 2091.78,-478.1"/>
</g>
<!-- [root] module.app.aws_s3_bucket_policy.main (expand) -->
<g id="node7" class="node">
<title>[root] module.app.aws_s3_bucket_policy.main (expand)</title>
<polygon fill="none" stroke="black" points="1825.28,-540 1529.28,-540 1529.28,-504 1825.28,-504 1825.28,-540"/>
<text text-anchor="middle" x="1677.28" y="-518.3" font-family="Times,serif" font-size="14.00">module.app.aws_s3_bucket_policy.main</text>
</g>
<!-- [root] module.app.data.aws_iam_policy_document.main (expand) -->
<g id="node10" class="node">
<title>[root] module.app.data.aws_iam_policy_document.main (expand)</title>
<polygon fill="none" stroke="black" points="1756.78,-252 1389.78,-252 1389.78,-216 1756.78,-216 1756.78,-252"/>
<text text-anchor="middle" x="1573.28" y="-230.3" font-family="Times,serif" font-size="14.00">module.app.data.aws_iam_policy_document.main</text>
</g>
<!-- [root] module.app.aws_s3_bucket_policy.main (expand)&#45;&gt;[root] module.app.data.aws_iam_policy_document.main (expand) -->
<g id="edge17" class="edge">
<title>[root] module.app.aws_s3_bucket_policy.main (expand)&#45;&gt;[root] module.app.data.aws_iam_policy_document.main (expand)</title>
<path fill="none" stroke="black" d="M1671.09,-503.97C1653.68,-456.09 1604.22,-320.06 1583.07,-261.9"/>
<polygon fill="black" stroke="black" points="1586.28,-260.51 1579.58,-252.31 1579.71,-262.9 1586.28,-260.51"/>
</g>
<!-- [root] provider[&quot;registry.terraform.io/hashicorp/archive&quot;] -->
<g id="node11" class="node">
<title>[root] provider[&quot;registry.terraform.io/hashicorp/archive&quot;]</title>
<polygon fill="none" stroke="black" points="3240.28,-252 2892.06,-234 3240.28,-216 3588.51,-234 3240.28,-252"/>
<text text-anchor="middle" x="3240.28" y="-230.3" font-family="Times,serif" font-size="14.00">provider[&quot;registry.terraform.io/hashicorp/archive&quot;]</text>
</g>
<!-- [root] module.app.data.archive_file.lambda (expand)&#45;&gt;[root] provider[&quot;registry.terraform.io/hashicorp/archive&quot;] -->
<g id="edge19" class="edge">
<title>[root] module.app.data.archive_file.lambda (expand)&#45;&gt;[root] provider[&quot;registry.terraform.io/hashicorp/archive&quot;]</title>
<path fill="none" stroke="black" d="M2942.92,-287.97C3008.03,-276.37 3093.4,-261.16 3155.96,-250.02"/>
<polygon fill="black" stroke="black" points="3156.96,-253.4 3166.19,-248.2 3155.73,-246.51 3156.96,-253.4"/>
</g>
<!-- [root] module.app (expand) -->
<g id="node22" class="node">
<title>[root] module.app (expand)</title>
<ellipse fill="none" stroke="black" cx="1576.28" cy="-18" rx="137.28" ry="18"/>
<text text-anchor="middle" x="1576.28" y="-14.3" font-family="Times,serif" font-size="14.00">[root] module.app (expand)</text>
</g>
<!-- [root] module.app.data.archive_file.lambda (expand)&#45;&gt;[root] module.app (expand) -->
<g id="edge18" class="edge">
<title>[root] module.app.data.archive_file.lambda (expand)&#45;&gt;[root] module.app (expand)</title>
<path fill="none" stroke="black" d="M2854.06,-287.72C2869.7,-244.61 2902.8,-131.46 2845.28,-72 2840.42,-66.97 2045.16,-36.59 1716.21,-24.22"/>
<polygon fill="black" stroke="black" points="1716.26,-20.72 1706.14,-23.85 1716,-27.72 1716.26,-20.72"/>
</g>
<!-- [root] module.app.data.aws_iam_policy_document.inline_policy (expand)&#45;&gt;[root] module.app.aws_dynamodb_table.apps_storage (expand) -->
<g id="edge20" class="edge">
<title>[root] module.app.data.aws_iam_policy_document.inline_policy (expand)&#45;&gt;[root] module.app.aws_dynamodb_table.apps_storage (expand)</title>
<path fill="none" stroke="black" d="M2105.28,-215.7C2105.28,-207.98 2105.28,-198.71 2105.28,-190.11"/>
<polygon fill="black" stroke="black" points="2108.78,-190.1 2105.28,-180.1 2101.78,-190.1 2108.78,-190.1"/>
</g>
<!-- [root] module.app.data.aws_iam_policy_document.main (expand)&#45;&gt;[root] module.app.aws_s3_bucket.example_bucket (expand) -->
<g id="edge21" class="edge">
<title>[root] module.app.data.aws_iam_policy_document.main (expand)&#45;&gt;[root] module.app.aws_s3_bucket.example_bucket (expand)</title>
<path fill="none" stroke="black" d="M1573.28,-215.7C1573.28,-207.98 1573.28,-198.71 1573.28,-190.11"/>
<polygon fill="black" stroke="black" points="1576.78,-190.1 1573.28,-180.1 1569.78,-190.1 1576.78,-190.1"/>
</g>
<!-- [root] module.app.var.whitelist_cidr (expand) -->
<g id="node23" class="node">
<title>[root] module.app.var.whitelist_cidr (expand)</title>
<ellipse fill="none" stroke="black" cx="368.28" cy="-162" rx="219.86" ry="18"/>
<text text-anchor="middle" x="368.28" y="-158.3" font-family="Times,serif" font-size="14.00">[root] module.app.var.whitelist_cidr (expand)</text>
</g>
<!-- [root] module.app.data.aws_iam_policy_document.main (expand)&#45;&gt;[root] module.app.var.whitelist_cidr (expand) -->
<g id="edge22" class="edge">
<title>[root] module.app.data.aws_iam_policy_document.main (expand)&#45;&gt;[root] module.app.var.whitelist_cidr (expand)</title>
<path fill="none" stroke="black" d="M1389.62,-222.33C1162.72,-209.15 778.99,-186.86 552.05,-173.68"/>
<polygon fill="black" stroke="black" points="552.22,-170.18 542.04,-173.09 551.82,-177.17 552.22,-170.18"/>
</g>
<!-- [root] var.bucket_name -->
<g id="node13" class="node">
<title>[root] var.bucket_name</title>
<polygon fill="none" stroke="black" points="676.78,-36 545.78,-36 545.78,0 682.78,0 682.78,-30 676.78,-36"/>
<polyline fill="none" stroke="black" points="676.78,-36 676.78,-30 "/>
<polyline fill="none" stroke="black" points="682.78,-30 676.78,-30 "/>
<text text-anchor="middle" x="614.28" y="-14.3" font-family="Times,serif" font-size="14.00">var.bucket_name</text>
</g>
<!-- [root] var.dynamodb_name -->
<g id="node14" class="node">
<title>[root] var.dynamodb_name</title>
<polygon fill="none" stroke="black" points="2676.78,-36 2519.78,-36 2519.78,0 2682.78,0 2682.78,-30 2676.78,-36"/>
<polyline fill="none" stroke="black" points="2676.78,-36 2676.78,-30 "/>
<polyline fill="none" stroke="black" points="2682.78,-30 2676.78,-30 "/>
<text text-anchor="middle" x="2601.28" y="-14.3" font-family="Times,serif" font-size="14.00">var.dynamodb_name</text>
</g>
<!-- [root] var.environment -->
<g id="node15" class="node">
<title>[root] var.environment</title>
<polygon fill="none" stroke="black" points="2193.28,-36 2065.28,-36 2065.28,0 2199.28,0 2199.28,-30 2193.28,-36"/>
<polyline fill="none" stroke="black" points="2193.28,-36 2193.28,-30 "/>
<polyline fill="none" stroke="black" points="2199.28,-30 2193.28,-30 "/>
<text text-anchor="middle" x="2132.28" y="-14.3" font-family="Times,serif" font-size="14.00">var.environment</text>
</g>
<!-- [root] var.project -->
<g id="node16" class="node">
<title>[root] var.project</title>
<polygon fill="none" stroke="black" points="1080.78,-36 993.78,-36 993.78,0 1086.78,0 1086.78,-30 1080.78,-36"/>
<polyline fill="none" stroke="black" points="1080.78,-36 1080.78,-30 "/>
<polyline fill="none" stroke="black" points="1086.78,-30 1080.78,-30 "/>
<text text-anchor="middle" x="1040.28" y="-14.3" font-family="Times,serif" font-size="14.00">var.project</text>
</g>
<!-- [root] module.app (close) -->
<g id="node17" class="node">
<title>[root] module.app (close)</title>
<ellipse fill="none" stroke="black" cx="2114.28" cy="-594" rx="126.98" ry="18"/>
<text text-anchor="middle" x="2114.28" y="-590.3" font-family="Times,serif" font-size="14.00">[root] module.app (close)</text>
</g>
<!-- [root] module.app (close)&#45;&gt;[root] module.app.aws_s3_bucket_notification.bucket_notification (expand) -->
<g id="edge1" class="edge">
<title>[root] module.app (close)&#45;&gt;[root] module.app.aws_s3_bucket_notification.bucket_notification (expand)</title>
<path fill="none" stroke="black" d="M2107.86,-575.7C2104.93,-567.81 2101.4,-558.3 2098.14,-549.55"/>
<polygon fill="black" stroke="black" points="2101.4,-548.26 2094.64,-540.1 2094.84,-550.7 2101.4,-548.26"/>
</g>
<!-- [root] module.app (close)&#45;&gt;[root] module.app.aws_s3_bucket_policy.main (expand) -->
<g id="edge2" class="edge">
<title>[root] module.app (close)&#45;&gt;[root] module.app.aws_s3_bucket_policy.main (expand)</title>
<path fill="none" stroke="black" d="M2033.62,-580.08C1966.24,-569.29 1869.29,-553.76 1793.53,-541.62"/>
<polygon fill="black" stroke="black" points="1793.88,-538.13 1783.46,-540.01 1792.78,-545.04 1793.88,-538.13"/>
</g>
<!-- [root] module.app.var.dynamodb_name (expand)&#45;&gt;[root] var.dynamodb_name -->
<g id="edge26" class="edge">
<title>[root] module.app.var.dynamodb_name (expand)&#45;&gt;[root] var.dynamodb_name</title>
<path fill="none" stroke="black" d="M2601.28,-71.7C2601.28,-63.98 2601.28,-54.71 2601.28,-46.11"/>
<polygon fill="black" stroke="black" points="2604.78,-46.1 2601.28,-36.1 2597.78,-46.1 2604.78,-46.1"/>
</g>
<!-- [root] module.app.var.dynamodb_name (expand)&#45;&gt;[root] module.app (expand) -->
<g id="edge25" class="edge">
<title>[root] module.app.var.dynamodb_name (expand)&#45;&gt;[root] module.app (expand)</title>
<path fill="none" stroke="black" d="M2433.94,-77.3C2408.27,-75.52 2382.07,-73.7 2357.28,-72 2127.77,-56.22 1860.29,-38.13 1705.41,-27.69"/>
<polygon fill="black" stroke="black" points="1705.59,-24.2 1695.37,-27.01 1705.11,-31.18 1705.59,-24.2"/>
</g>
<!-- [root] module.app.var.environment (expand)&#45;&gt;[root] var.environment -->
<g id="edge28" class="edge">
<title>[root] module.app.var.environment (expand)&#45;&gt;[root] var.environment</title>
<path fill="none" stroke="black" d="M2132.28,-71.7C2132.28,-63.98 2132.28,-54.71 2132.28,-46.11"/>
<polygon fill="black" stroke="black" points="2135.78,-46.1 2132.28,-36.1 2128.78,-46.1 2135.78,-46.1"/>
</g>
<!-- [root] module.app.var.environment (expand)&#45;&gt;[root] module.app (expand) -->
<g id="edge27" class="edge">
<title>[root] module.app.var.environment (expand)&#45;&gt;[root] module.app (expand)</title>
<path fill="none" stroke="black" d="M2018.43,-74.67C1919.62,-62.23 1777.72,-44.36 1681.53,-32.25"/>
<polygon fill="black" stroke="black" points="1681.85,-28.76 1671.49,-30.99 1680.98,-35.71 1681.85,-28.76"/>
</g>
<!-- [root] module.app.var.project (expand)&#45;&gt;[root] var.project -->
<g id="edge30" class="edge">
<title>[root] module.app.var.project (expand)&#45;&gt;[root] var.project</title>
<path fill="none" stroke="black" d="M1040.28,-71.7C1040.28,-63.98 1040.28,-54.71 1040.28,-46.11"/>
<polygon fill="black" stroke="black" points="1043.78,-46.1 1040.28,-36.1 1036.78,-46.1 1043.78,-46.1"/>
</g>
<!-- [root] module.app.var.project (expand)&#45;&gt;[root] module.app (expand) -->
<g id="edge29" class="edge">
<title>[root] module.app.var.project (expand)&#45;&gt;[root] module.app (expand)</title>
<path fill="none" stroke="black" d="M1146.82,-75.09C1241.53,-62.72 1379.11,-44.75 1472.86,-32.51"/>
<polygon fill="black" stroke="black" points="1473.47,-35.96 1482.93,-31.19 1472.56,-29.02 1473.47,-35.96"/>
</g>
<!-- [root] module.app.var.bucket_name (expand)&#45;&gt;[root] var.bucket_name -->
<g id="edge24" class="edge">
<title>[root] module.app.var.bucket_name (expand)&#45;&gt;[root] var.bucket_name</title>
<path fill="none" stroke="black" d="M614.28,-71.7C614.28,-63.98 614.28,-54.71 614.28,-46.11"/>
<polygon fill="black" stroke="black" points="617.78,-46.1 614.28,-36.1 610.78,-46.1 617.78,-46.1"/>
</g>
<!-- [root] module.app.var.bucket_name (expand)&#45;&gt;[root] module.app (expand) -->
<g id="edge23" class="edge">
<title>[root] module.app.var.bucket_name (expand)&#45;&gt;[root] module.app (expand)</title>
<path fill="none" stroke="black" d="M769.36,-77.33C793.44,-75.53 818.03,-73.71 841.28,-72 1054.2,-56.35 1301.84,-38.58 1448.46,-28.11"/>
<polygon fill="black" stroke="black" points="1449.12,-31.57 1458.85,-27.37 1448.62,-24.59 1449.12,-31.57"/>
</g>
<!-- [root] module.app.var.whitelist_cidr (expand)&#45;&gt;[root] module.app (expand) -->
<g id="edge32" class="edge">
<title>[root] module.app.var.whitelist_cidr (expand)&#45;&gt;[root] module.app (expand)</title>
<path fill="none" stroke="black" d="M366.36,-143.85C365.11,-123.3 366.66,-89.46 387.28,-72 397.19,-63.62 1124.11,-35.74 1436.33,-24.14"/>
<polygon fill="black" stroke="black" points="1436.49,-27.63 1446.35,-23.76 1436.23,-20.64 1436.49,-27.63"/>
</g>
<!-- [root] local.whitelist_cidr (expand) -->
<g id="node24" class="node">
<title>[root] local.whitelist_cidr (expand)</title>
<ellipse fill="none" stroke="black" cx="170.28" cy="-90" rx="170.07" ry="18"/>
<text text-anchor="middle" x="170.28" y="-86.3" font-family="Times,serif" font-size="14.00">[root] local.whitelist_cidr (expand)</text>
</g>
<!-- [root] module.app.var.whitelist_cidr (expand)&#45;&gt;[root] local.whitelist_cidr (expand) -->
<g id="edge31" class="edge">
<title>[root] module.app.var.whitelist_cidr (expand)&#45;&gt;[root] local.whitelist_cidr (expand)</title>
<path fill="none" stroke="black" d="M321.36,-144.41C292.78,-134.31 256.1,-121.34 226.04,-110.71"/>
<polygon fill="black" stroke="black" points="227.12,-107.38 216.53,-107.35 224.79,-113.98 227.12,-107.38"/>
</g>
<!-- [root] provider[&quot;registry.terraform.io/hashicorp/archive&quot;] (close) -->
<g id="node25" class="node">
<title>[root] provider[&quot;registry.terraform.io/hashicorp/archive&quot;] (close)</title>
<ellipse fill="none" stroke="black" cx="2677.28" cy="-450" rx="308.15" ry="18"/>
<text text-anchor="middle" x="2677.28" y="-446.3" font-family="Times,serif" font-size="14.00">[root] provider[&quot;registry.terraform.io/hashicorp/archive&quot;] (close)</text>
</g>
<!-- [root] provider[&quot;registry.terraform.io/hashicorp/archive&quot;] (close)&#45;&gt;[root] module.app.data.archive_file.lambda (expand) -->
<g id="edge33" class="edge">
<title>[root] provider[&quot;registry.terraform.io/hashicorp/archive&quot;] (close)&#45;&gt;[root] module.app.data.archive_file.lambda (expand)</title>
<path fill="none" stroke="black" d="M2697.79,-431.87C2728.04,-406.6 2784.73,-359.25 2818.94,-330.68"/>
<polygon fill="black" stroke="black" points="2821.28,-333.29 2826.71,-324.19 2816.79,-327.91 2821.28,-333.29"/>
</g>
<!-- [root] provider[&quot;registry.terraform.io/hashicorp/aws&quot;] (close) -->
<g id="node26" class="node">
<title>[root] provider[&quot;registry.terraform.io/hashicorp/aws&quot;] (close)</title>
<ellipse fill="none" stroke="black" cx="1677.28" cy="-594" rx="291.65" ry="18"/>
<text text-anchor="middle" x="1677.28" y="-590.3" font-family="Times,serif" font-size="14.00">[root] provider[&quot;registry.terraform.io/hashicorp/aws&quot;] (close)</text>
</g>
<!-- [root] provider[&quot;registry.terraform.io/hashicorp/aws&quot;] (close)&#45;&gt;[root] module.app.aws_s3_bucket_notification.bucket_notification (expand) -->
<g id="edge34" class="edge">
<title>[root] provider[&quot;registry.terraform.io/hashicorp/aws&quot;] (close)&#45;&gt;[root] module.app.aws_s3_bucket_notification.bucket_notification (expand)</title>
<path fill="none" stroke="black" d="M1771.58,-576.94C1833.1,-566.46 1913.66,-552.74 1978.13,-541.76"/>
<polygon fill="black" stroke="black" points="1979.07,-545.15 1988.34,-540.02 1977.89,-538.25 1979.07,-545.15"/>
</g>
<!-- [root] provider[&quot;registry.terraform.io/hashicorp/aws&quot;] (close)&#45;&gt;[root] module.app.aws_s3_bucket_policy.main (expand) -->
<g id="edge35" class="edge">
<title>[root] provider[&quot;registry.terraform.io/hashicorp/aws&quot;] (close)&#45;&gt;[root] module.app.aws_s3_bucket_policy.main (expand)</title>
<path fill="none" stroke="black" d="M1677.28,-575.7C1677.28,-567.98 1677.28,-558.71 1677.28,-550.11"/>
<polygon fill="black" stroke="black" points="1680.78,-550.1 1677.28,-540.1 1673.78,-550.1 1680.78,-550.1"/>
</g>
<!-- [root] root -->
<g id="node27" class="node">
<title>[root] root</title>
<ellipse fill="none" stroke="black" cx="2114.28" cy="-666" rx="58.49" ry="18"/>
<text text-anchor="middle" x="2114.28" y="-662.3" font-family="Times,serif" font-size="14.00">[root] root</text>
</g>
<!-- [root] root&#45;&gt;[root] module.app (close) -->
<g id="edge36" class="edge">
<title>[root] root&#45;&gt;[root] module.app (close)</title>
<path fill="none" stroke="black" d="M2114.28,-647.7C2114.28,-639.98 2114.28,-630.71 2114.28,-622.11"/>
<polygon fill="black" stroke="black" points="2117.78,-622.1 2114.28,-612.1 2110.78,-622.1 2117.78,-622.1"/>
</g>
<!-- [root] root&#45;&gt;[root] provider[&quot;registry.terraform.io/hashicorp/archive&quot;] (close) -->
<g id="edge37" class="edge">
<title>[root] root&#45;&gt;[root] provider[&quot;registry.terraform.io/hashicorp/archive&quot;] (close)</title>
<path fill="none" stroke="black" d="M2149.5,-651.61C2244.94,-615.34 2509.01,-514.96 2623.35,-471.5"/>
<polygon fill="black" stroke="black" points="2624.86,-474.67 2632.96,-467.85 2622.37,-468.13 2624.86,-474.67"/>
</g>
<!-- [root] root&#45;&gt;[root] provider[&quot;registry.terraform.io/hashicorp/aws&quot;] (close) -->
<g id="edge38" class="edge">
<title>[root] root&#45;&gt;[root] provider[&quot;registry.terraform.io/hashicorp/aws&quot;] (close)</title>
<path fill="none" stroke="black" d="M2063.73,-656.9C1996.45,-646.12 1875.67,-626.78 1787,-612.57"/>
<polygon fill="black" stroke="black" points="1787.32,-609.08 1776.89,-610.96 1786.21,-615.99 1787.32,-609.08"/>
</g>
</g>
</svg>
